<?xml version="1.0" encoding="UTF-8"?>
<svg id="Layer_1" xmlns="http://www.w3.org/2000/svg" xmlns:xlink="http://www.w3.org/1999/xlink" viewBox="0 0 64 64">
  <defs>
    <style>
      .cls-1 {
        fill: none;
      }

      .cls-2 {
        fill: url(#linear-gradient);
      }
    </style>
    <linearGradient id="linear-gradient" x1="24.65" y1="24.09" x2="39.59" y2="39.03" gradientUnits="userSpaceOnUse">
      <stop offset="0" stop-color="#81c341"/>
      <stop offset="1" stop-color="#019450"/>
    </linearGradient>
  </defs>
  <path class="cls-2" d="M25.44,35.91c-1.34-1.81-1.34-3.87-2.97-4.36-2.04-.61-4.02,1.99-4.42,1.62-.51-.47,2.17-6.86,7.8-8.35,3.04-.8,5.8.03,6.5.39,3.03,1.54,2.12,3.8,4.99,4.86,1.36.5,5.01.08,7.93-.63.45-.11.86.3.72.75-.6,1.99-2.38,6.29-6.98,8.3-4.97,2.17-11.11.75-13.57-2.57Z"/>
  <rect class="cls-1" width="64" height="64"/>
</svg>