<?xml version="1.0" encoding="UTF-8"?>
<svg xmlns="http://www.w3.org/2000/svg" version="1.1" viewBox="0 0 64 64">
  <!-- Generator: Adobe Illustrator 28.7.1, SVG Export Plug-In . SVG Version: 1.2.0 Build 142)  -->
  <g>
    <g id="Layer_1">
      <path d="M46.2,37.6c-1.7-3-4.5-5.1-7.8-5.9-1.5-.5-3.1-.8-4.7-1.1V14.4c3.1.3,6.1,1.5,8.6,3.3.7.7,1.9.6,2.5-.2.7-.7.6-1.9-.2-2.5-3.2-2.5-7-3.9-11-4.3v-5.5c0-1-.8-1.8-1.8-1.8s-1.8.8-1.8,1.8v5.3c-7.8.2-12.1,4.1-13.5,7.4-1.8,4.5-.1,9.6,4,12.1,2.9,1.8,6.1,2.9,9.5,3.3v16.3c-4.6-.2-9.1-1.9-12.7-4.9-.6-.8-1.8-.8-2.5-.2-.8.6-.8,1.8-.2,2.5,0,.1.2.2.3.3,4.3,3.6,9.6,5.6,15.1,5.9v5.3c0,1,.8,1.8,1.8,1.8s1.8-.8,1.8-1.8v-5.3c5-.3,10.8-1.9,13-8.5.8-2.4.6-5-.5-7.3M22.7,27.2c-2.7-1.6-3.8-4.9-2.6-7.8.2-.5,2.2-5,10.1-5.2v15.6c-2.7-.3-5.2-1.2-7.5-2.6M43.4,43.7c-1.3,3.8-4.1,5.6-9.6,6v-15.5c1.1.2,2.3.5,3.6.9,2.4.5,4.4,2,5.7,4.1.7,1.4.8,3,.4,4.4"/>
    </g>
  </g>
</svg>