<?xml version="1.0" encoding="UTF-8"?>
<svg id="Leaf" xmlns="http://www.w3.org/2000/svg" xmlns:xlink="http://www.w3.org/1999/xlink" viewBox="0 0 64 34.33">
  <defs>
    <style>
      .cls-1 {
        fill: url(#linear-gradient);
      }

      .cls-2 {
        fill: #fff;
      }
    </style>
    <linearGradient id="linear-gradient" x1="15.22" y1="-.89" x2="49.33" y2="33.21" gradientUnits="userSpaceOnUse">
      <stop offset="0" stop-color="#81c341"/>
      <stop offset="1" stop-color="#019450"/>
    </linearGradient>
  </defs>
  <path class="cls-1" d="M17.02,26.08c-3.05-4.14-3.06-8.83-6.79-9.95C5.58,14.73,1.05,20.67.14,19.83-1.03,18.75,5.09,4.16,17.94.77c6.94-1.83,13.24.08,14.85.9,6.91,3.51,4.83,8.68,11.38,11.09,3.11,1.14,11.43.19,18.11-1.44,1.03-.25,1.96.69,1.65,1.7-1.36,4.55-5.43,14.35-15.93,18.94-11.35,4.96-25.38,1.71-30.98-5.88Z"/>
  <g>
    <path class="cls-2" d="M22.54,26.85c-1.39-.87-2.62-1.98-3.64-3.26-.16-.21-.23-.48-.19-.74l1.04-7.16c.05-.3-.19-.57-.49-.57h-2.88c-.32,0-.58-.26-.58-.58,0-.69.06-1.36.16-2.02.13-.87.9-1.5,1.78-1.5h2.04c.48,0,.68-.18.72-.42l.2-.67c.15-.8.33-1.5.52-2.11.19-.6.53-1.26,1.03-1.96.5-.71,1.21-1.3,2.14-1.78.93-.48,2.12-.72,3.57-.72.62,0,1.2.05,1.74.13.43.07.92.17,1.48.3.25.06.42.3.38.56-.1.76-.32,2.3-.42,3.08-.04.26-.28.44-.55.41-.59-.07-1.08-.11-1.47-.11-.97,0-1.69.26-2.18.79-.43.46-.73.78-.93,1.93-.05.31.17.57.49.57h2.36c.54,0,.77.27.72.58l-.51,3.1c-.04.24-.25.42-.5.42h-2.82c-.25,0-.46.17-.49.42,0,0-1.28,8.12-1.72,10.88-.07.45-.58.67-.97.42Z"/>
    <path class="cls-2" d="M39.84,30.95c-1.3.04-1.95.06-2.17-.13-.3-.26-.2-.58-.16-1.22l1.11-9.23c.12-.72.18-1.17.18-1.37,0-.33-.07-.58-.21-.75-.14-.17-.39-.25-.76-.25-.39,0-.8.12-1.22.37-.37.21-.81.53-1.33.94-.16.13-.27.3-.3.49l-1.62,10.07c-.05.22-.2.75-.96.7l-2.43-.5c-.57-.09-1.04-.44-.96-.94l2.12-15.45c.07-.4.48-.7.96-.7h2.57c.6,0,1.05.45.96.95l-.08,1.91c.46-.39,1.07-.76,1.8-1.09s1.52-.5,2.34-.5c1.58,0,2.52.99,3.36,2.07.39.34.7.26,1.12,0,.42-.25.91-.47,1.46-.65.55-.18,1.16-.27,1.82-.27,1.6,0,2.71.37,3.31,1.12.61.75.91,1.54.91,2.39,0,.3-.06.42-.19,1.19-.1.63-.43,3.38-.98,6.63-.03.18-.09.56-.43.88-.23.23-.44.4-1.27.8-1.19.58-1.4.87-1.91.81-.19-.02-.5-.06-.73-.28-.24-.24-.23-.54-.23-.66l1.01-8.26c.05-.34.08-.61.08-.82,0-.81-.34-1.22-1.01-1.22-.62,0-1.41.35-2.39,1.04-.18.13-.3.32-.34.52-.38,2.89-.63,6.79-.99,9.68-.07.59-.07,1.08-.64,1.49-.23.17-.76.19-1.81.22Z"/>
  </g>
</svg>