<?xml version="1.0" encoding="UTF-8"?>
<svg id="Layer_1" xmlns="http://www.w3.org/2000/svg" xmlns:xlink="http://www.w3.org/1999/xlink" viewBox="0 0 64 34.33">
  <defs>
    <style>
      .cls-1 {
        fill: url(#linear-gradient);
      }
    </style>
    <linearGradient id="linear-gradient" x1="15.22" y1="-.89" x2="49.33" y2="33.21" gradientUnits="userSpaceOnUse">
      <stop offset="0" stop-color="#81c341"/>
      <stop offset="1" stop-color="#019450"/>
    </linearGradient>
  </defs>
  <path class="cls-1" d="M17.02,26.08c-3.05-4.14-3.06-8.83-6.79-9.95C5.58,14.73,1.05,20.67.14,19.83-1.03,18.75,5.09,4.16,17.94.77c6.94-1.83,13.24.08,14.85.9,6.91,3.51,4.83,8.68,11.38,11.09,3.11,1.14,11.43.19,18.11-1.44,1.03-.25,1.96.69,1.65,1.7-1.36,4.55-5.43,14.35-15.93,18.94-11.35,4.96-25.38,1.71-30.98-5.88Z"/>
</svg>